# xmcd
# 
# Track frame offsets:
#     150
#     3850
#     4875
#     8112
#     9125
#     13350
#     18400
#     22362
#     30200
#     33025
#     39350
#     51450
#     58125
#     74150
#     80650
#     100875
#     121650
#     134775
#     149575
#     165125
#     174537
#     196575
#     226337
#     236825
#     256875
#     266687
# 
# Disc length: 3802
# 
# Revision: 0
# Processed by: cddbd v1.5.2PL0 Copyright (c) Steve Scherf et al.
# Submitted via: fre:ac v1.1beta1pre4
# 
DISCID=550ed81a
DTITLE=Various Artist - アイドル防衛隊ハミングバード外伝 ザッツ・ミュージカル『卯月の反乱〜こんな日が来るなんて』
DYEAR=1994
DGENRE=Anime
TTITLE0=開演間近
TTITLE1=劇場CM1 「焼肉 ゆげや」
TTITLE2=劇場CM2 「ゴキブリホイ」 〜『ゴキブリホイ(ビューティ・Ver.)』
TTITLE3=劇場CM3 「パチンコ 服部会館」
TTITLE4=劇場CM4 「ゴキブリホイ」 〜『ゴキブリホイ(ダーティ・Ver.)』
TTITLE5=劇場CM5 「ゴジラVSハミングバード」 〜『富士火山のゴジラ』(「ゴジラVSモスラ」より)
TTITLE6=開演 〜『ロマンスに秒読み』
TTITLE7=悪の予兆 〜『フィーバーガールズのテーマ(歌:入り)』
TTITLE8=陽気な卯月 〜『油虫ダンス=x
TTITLE9=陽気な水無 〜『TOTOBENKI』
TTITLE10=フィーバーガールズの作戦
TTITLE11=ハミングバードの作戦
TTITLE12=落ち込む卯月 〜『葛藤のバラード』
TTITLE13=魔法のジュース
TTITLE14=悪の道へと… 〜『誘惑』
TTITLE15=変わり果てた卯月
TTITLE16=バッド・フィーバーガールズ!? 〜『どうしたの?』
TTITLE17=一体、何が起こったんだ? 〜『助けたい!』
TTITLE18=複雑な戦闘
TTITLE19=薬の虜
TTITLE20=卯月を助けて! 〜『まりもの精の歌:』
TTITLE21=クライマックス 〜『Which?』
TTITLE22=ハミングバードの作戦とは?
TTITLE23=終演 〜『Love Wing (5人バージョン)』
TTITLE24=次は誰なのか?
TTITLE25=ロマンスに秒読み
EXTD=
EXTT0=
EXTT1=
EXTT2=
EXTT3=
EXTT4=
EXTT5=
EXTT6=
EXTT7=
EXTT8=
EXTT9=
EXTT10=
EXTT11=
EXTT12=
EXTT13=
EXTT14=
EXTT15=
EXTT16=
EXTT17=
EXTT18=
EXTT19=
EXTT20=
EXTT21=
EXTT22=
EXTT23=
EXTT24=
EXTT25=
PLAYORDER=
